<?xml version="1.0" encoding="UTF-8"?>
<!DOCTYPE svg PUBLIC "-//W3C//DTD SVG 1.1//EN" "http://www.w3.org/Graphics/SVG/1.1/DTD/svg11.dtd">
<!-- Creator: CorelDRAW 2020 (64-Bit) -->
<svg xmlns="http://www.w3.org/2000/svg" xml:space="preserve" width="297mm" height="210mm" version="1.1" style="shape-rendering:geometricPrecision; text-rendering:geometricPrecision; image-rendering:optimizeQuality; fill-rule:evenodd; clip-rule:evenodd"
viewBox="0 0 29700 21000"
 xmlns:xlink="http://www.w3.org/1999/xlink"
 xmlns:xodm="http://www.corel.com/coreldraw/odm/2003">
 <defs>
  <style type="text/css">
   <![CDATA[
    .fil0 {fill:black;fill-rule:nonzero}
   ]]>
  </style>
 </defs>
 <g id="Layer_x0020_1">
  <metadata id="CorelCorpID_0Corel-Layer"/>
  <path class="fil0" d="M14849.48 17474.59c230.33,0 398.65,-168.31 442.91,-407.49 628.99,-4854.65 1311.12,-5589.93 6112.59,-6121.48 248.07,-26.57 416.38,-212.61 416.38,-442.91 0,-230.34 -168.31,-407.54 -416.38,-442.95 -4801.47,-531.55 -5483.6,-1266.83 -6112.59,-6121.44 -44.26,-239.18 -212.58,-398.65 -442.91,-398.65 -230.34,0 -398.66,159.47 -434.07,398.65 -628.99,4854.61 -1319.97,5589.89 -6112.63,6121.44 -256.88,35.41 -425.19,212.61 -425.19,442.95 0,230.3 168.31,416.34 425.19,442.91 4783.78,628.99 5448.18,1275.71 6112.63,6121.48 35.41,239.18 203.73,407.49 434.07,407.49z"/>
 </g>
</svg>
